<svg version="1.1" xmlns="http://www.w3.org/2000/svg" xmlns:xlink="http://www.w3.org/1999/xlink" width="583.00001" height="606.433" viewBox="0,0,583.00001,606.433"><defs><linearGradient x1="251" y1="-49.2455" x2="251" y2="307.75451" gradientUnits="userSpaceOnUse" id="color-1"><stop offset="0" stop-color="#79fff5"/><stop offset="1" stop-color="#e8fff8"/></linearGradient><linearGradient x1="250" y1="191.009" x2="250" y2="424.50001" gradientUnits="userSpaceOnUse" id="color-2"><stop offset="0" stop-color="#00f71a"/><stop offset="1" stop-color="#00d22b"/></linearGradient><linearGradient x1="223" y1="209.00002" x2="223" y2="411.00001" gradientUnits="userSpaceOnUse" id="color-3"><stop offset="0" stop-color="#c37e3d"/><stop offset="1" stop-color="#f7b550"/></linearGradient><radialGradient cx="223" cy="310.00001" r="101" gradientUnits="userSpaceOnUse" id="color-4"><stop offset="0" stop-color="#ffffff"/><stop offset="1" stop-color="#ffffff" stop-opacity="0"/></radialGradient></defs><g transform="translate(41.5,49.24549)"><g stroke-miterlimit="10"><path d="M-37.5,307.75451v-357h577v357z" fill="url(#color-1)" stroke="none" stroke-width="0"/><path d="M-41.5,424.50001v-215c0,0 82.83783,-15.2008 189.97835,-18.41044c24.1525,-0.72354 45.71597,2.61969 66.80831,8.48955c7.39586,2.05822 12.10264,6.18118 20.47031,8.13005c7.07053,1.64676 14.61293,0.1748 22.83835,1.52086c30.40963,4.97642 70.15477,10.46547 129.90469,7.26998c95.74788,-5.1207 153,-7 153,-7v215z" fill="url(#color-2)" stroke="none" stroke-width="1"/><path d="M77,557.18751l140,-356.1875c0,0 13.37646,4.8161 19.84417,6.17772c6.18645,1.30241 18.15583,1.82228 18.15583,1.82228l126,345.1875z" fill="url(#color-3)" stroke="url(#color-4)" stroke-width="0"/></g></g></svg>